{
  "accessors": [
    {
      "bufferView": 2,
      "componentType": 5126,
      "count": 892,
      "max": [
        0.8327233195304871,
        3.3294034004211426,
        0.06350314617156982
      ],
      "min": [
        -0.8327234387397766,
        -3.3364341259002686,
        -0.35983318090438843
      ],
      "type": "VEC3"
    },
    {
      "bufferView": 2,
      "byteOffset": 10704,
      "componentType": 5126,
      "count": 892,
      "max": [
        0.9997566938400269,
        0.9958479404449463,
        1.0
      ],
      "min": [
        -0.9997566342353821,
        -0.9990959167480469,
        -0.9999986290931702
      ],
      "type": "VEC3"
    },
    {
      "bufferView": 1,
      "componentType": 5126,
      "count": 892,
      "max": [
        0.5695698261260986,
        0.9864161610603333
      ],
      "min": [
        0.43222934007644653,
        0.013085504993796349
      ],
      "type": "VEC2"
    },
    {
      "bufferView": 0,
      "componentType": 5125,
      "count": 4656,
      "type": "SCALAR"
    },
    {
      "bufferView": 2,
      "byteOffset": 21408,
      "componentType": 5126,
      "count": 207,
      "max": [
        0.7472090125083923,
        3.284914493560791,
        -0.02644922025501728
      ],
      "min": [
        -0.7472091913223267,
        -3.2813475131988525,
        -0.35676631331443787
      ],
      "type": "VEC3"
    },
    {
      "bufferView": 2,
      "byteOffset": 23892,
      "componentType": 5126,
      "count": 207,
      "max": [
        0.109463632106781,
        0.388910710811615,
        -0.9126386046409607
      ],
      "min": [
        -0.10875197499990463,
        -0.4087675213813782,
        -1.0
      ],
      "type": "VEC3"
    },
    {
      "bufferView": 1,
      "byteOffset": 7136,
      "componentType": 5126,
      "count": 207,
      "max": [
        0.7343814969062805,
        0.9811786413192749
      ],
      "min": [
        0.4964095950126648,
        0.018804093822836876
      ],
      "type": "VEC2"
    },
    {
      "bufferView": 0,
      "byteOffset": 18624,
      "componentType": 5125,
      "count": 1056,
      "type": "SCALAR"
    },
    {
      "bufferView": 2,
      "byteOffset": 26376,
      "componentType": 5126,
      "count": 1288,
      "max": [
        0.7901133298873901,
        -1.7140426635742188,
        0.5985217094421387
      ],
      "min": [
        -0.7938127517700195,
        -2.098853349685669,
        0.21436721086502075
      ],
      "type": "VEC3"
    },
    {
      "bufferView": 2,
      "byteOffset": 41832,
      "componentType": 5126,
      "count": 1288,
      "max": [
        0.9999485015869141,
        0.9999680519104004,
        0.9999712705612183
      ],
      "min": [
        -0.9999485015869141,
        -0.9999681115150452,
        -0.9999712705612183
      ],
      "type": "VEC3"
    },
    {
      "bufferView": 1,
      "byteOffset": 8792,
      "componentType": 5126,
      "count": 1288,
      "max": [
        1.0,
        1.0
      ],
      "min": [
        0.0,
        0.010167750529944897
      ],
      "type": "VEC2"
    },
    {
      "bufferView": 0,
      "byteOffset": 22848,
      "componentType": 5125,
      "count": 3048,
      "type": "SCALAR"
    },
    {
      "bufferView": 2,
      "byteOffset": 57288,
      "componentType": 5126,
      "count": 1017,
      "max": [
        0.7869950532913208,
        -1.5043878555297852,
        0.47473812103271484
      ],
      "min": [
        -0.7743209600448608,
        -2.12284779548645,
        0.024812161922454834
      ],
      "type": "VEC3"
    },
    {
      "bufferView": 2,
      "byteOffset": 69492,
      "componentType": 5126,
      "count": 1017,
      "max": [
        0.9999757409095764,
        0.9999679923057556,
        0.9999712705612183
      ],
      "min": [
        -0.9999485015869141,
        -0.9999680519104004,
        -0.999971330165863
      ],
      "type": "VEC3"
    },
    {
      "bufferView": 1,
      "byteOffset": 19096,
      "componentType": 5126,
      "count": 1017,
      "max": [
        1.0,
        1.0000001192092896
      ],
      "min": [
        -8.940696716308594e-08,
        0.0
      ],
      "type": "VEC2"
    },
    {
      "bufferView": 0,
      "byteOffset": 35040,
      "componentType": 5125,
      "count": 3504,
      "type": "SCALAR"
    },
    {
      "bufferView": 2,
      "byteOffset": 81696,
      "componentType": 5126,
      "count": 1288,
      "max": [
        0.7850984930992126,
        1.9840419292449951,
        0.5982273817062378
      ],
      "min": [
        -0.798538327217102,
        1.6014022827148438,
        0.2153383493423462
      ],
      "type": "VEC3"
    },
    {
      "bufferView": 2,
      "byteOffset": 97152,
      "componentType": 5126,
      "count": 1288,
      "max": [
        0.9999634027481079,
        0.9999668598175049,
        0.9999660849571228
      ],
      "min": [
        -0.9999633431434631,
        -0.9999668598175049,
        -0.9999660849571228
      ],
      "type": "VEC3"
    },
    {
      "bufferView": 1,
      "byteOffset": 27232,
      "componentType": 5126,
      "count": 1288,
      "max": [
        1.0,
        1.0
      ],
      "min": [
        0.0,
        0.010167750529944897
      ],
      "type": "VEC2"
    },
    {
      "bufferView": 0,
      "byteOffset": 49056,
      "componentType": 5125,
      "count": 3048,
      "type": "SCALAR"
    },
    {
      "bufferView": 2,
      "byteOffset": 112608,
      "componentType": 5126,
      "count": 1017,
      "max": [
        0.7656641602516174,
        2.0116097927093506,
        0.47471028566360474
      ],
      "min": [
        -0.7955217957496643,
        1.3935225009918213,
        0.02343735098838806
      ],
      "type": "VEC3"
    },
    {
      "bufferView": 2,
      "byteOffset": 124812,
      "componentType": 5126,
      "count": 1017,
      "max": [
        0.9999633431434631,
        0.999977707862854,
        0.9999660849571228
      ],
      "min": [
        -0.9999743700027466,
        -0.9999668002128601,
        -0.9999660849571228
      ],
      "type": "VEC3"
    },
    {
      "bufferView": 1,
      "byteOffset": 37536,
      "componentType": 5126,
      "count": 1017,
      "max": [
        1.0,
        1.0000001192092896
      ],
      "min": [
        -8.940696716308594e-08,
        0.0
      ],
      "type": "VEC2"
    },
    {
      "bufferView": 0,
      "byteOffset": 61248,
      "componentType": 5125,
      "count": 3504,
      "type": "SCALAR"
    }
  ],
  "asset": {
    "extras": {
      "author": "Dzenly (https://sketchfab.com/dzenly2022)",
      "license": "CC-BY-4.0 (http://creativecommons.org/licenses/by/4.0/)",
      "source": "https://sketchfab.com/3d-models/skateboard-13d210cdedc542fe9d45c521f53a8cdb",
      "title": "Skateboard"
    },
    "generator": "Sketchfab-15.50.0",
    "version": "2.0"
  },
  "bufferViews": [
    {
      "buffer": 0,
      "byteLength": 75264,
      "name": "floatBufferViews",
      "target": 34963
    },
    {
      "buffer": 0,
      "byteLength": 45672,
      "byteOffset": 75264,
      "byteStride": 8,
      "name": "floatBufferViews",
      "target": 34962
    },
    {
      "buffer": 0,
      "byteLength": 137016,
      "byteOffset": 120936,
      "byteStride": 12,
      "name": "floatBufferViews",
      "target": 34962
    }
  ],
  "buffers": [
    {
      "byteLength": 257952,
      "uri": "scene.bin"
    }
  ],
  "images": [
    {
      "uri": "textures/Material.001_baseColor.jpeg"
    }
  ],
  "materials": [
    {
      "doubleSided": true,
      "name": "Material.001",
      "pbrMetallicRoughness": {
        "baseColorTexture": {
          "index": 0
        },
        "metallicFactor": 0.0,
        "roughnessFactor": 0.857610492968589
      }
    },
    {
      "doubleSided": true,
      "name": "Material.002",
      "pbrMetallicRoughness": {
        "baseColorFactor": [
          0.0322313,
          0.0322313,
          0.0322313,
          1.0
        ],
        "metallicFactor": 0.0
      }
    },
    {
      "doubleSided": true,
      "name": "Material.003",
      "pbrMetallicRoughness": {
        "baseColorFactor": [
          0.620661,
          0.563704,
          0.454697,
          1.0
        ],
        "metallicFactor": 0.0
      }
    },
    {
      "doubleSided": true,
      "name": "track",
      "pbrMetallicRoughness": {
        "baseColorFactor": [
          0.269934,
          0.269934,
          0.269934,
          1.0
        ],
        "metallicFactor": 0.6434353616066887,
        "roughnessFactor": 0.3383456092246456
      }
    }
  ],
  "meshes": [
    {
      "name": "Plane.002_Material.001_0",
      "primitives": [
        {
          "attributes": {
            "NORMAL": 1,
            "POSITION": 0,
            "TEXCOORD_0": 2
          },
          "indices": 3,
          "material": 0,
          "mode": 4
        }
      ]
    },
    {
      "name": "Plane.002_Material.002_0",
      "primitives": [
        {
          "attributes": {
            "NORMAL": 5,
            "POSITION": 4,
            "TEXCOORD_0": 6
          },
          "indices": 7,
          "material": 1,
          "mode": 4
        }
      ]
    },
    {
      "name": "Cylinder.003_Material.003_0",
      "primitives": [
        {
          "attributes": {
            "NORMAL": 9,
            "POSITION": 8,
            "TEXCOORD_0": 10
          },
          "indices": 11,
          "material": 2,
          "mode": 4
        }
      ]
    },
    {
      "name": "Cylinder.003_track_0",
      "primitives": [
        {
          "attributes": {
            "NORMAL": 13,
            "POSITION": 12,
            "TEXCOORD_0": 14
          },
          "indices": 15,
          "material": 3,
          "mode": 4
        }
      ]
    },
    {
      "name": "Cylinder.001_Material.003_0",
      "primitives": [
        {
          "attributes": {
            "NORMAL": 17,
            "POSITION": 16,
            "TEXCOORD_0": 18
          },
          "indices": 19,
          "material": 2,
          "mode": 4
        }
      ]
    },
    {
      "name": "Cylinder.001_track_0",
      "primitives": [
        {
          "attributes": {
            "NORMAL": 21,
            "POSITION": 20,
            "TEXCOORD_0": 22
          },
          "indices": 23,
          "material": 3,
          "mode": 4
        }
      ]
    }
  ],
  "nodes": [
    {
      "children": [
        1
      ],
      "matrix": [
        1.0,
        0.0,
        0.0,
        0.0,
        0.0,
        2.220446049250313e-16,
        -1.0,
        0.0,
        0.0,
        1.0,
        2.220446049250313e-16,
        0.0,
        0.0,
        0.0,
        0.0,
        1.0
      ],
      "name": "Sketchfab_model"
    },
    {
      "children": [
        2
      ],
      "matrix": [
        0.009999999776482582,
        0.0,
        0.0,
        0.0,
        0.0,
        0.0,
        0.009999999776482582,
        0.0,
        0.0,
        -0.009999999776482582,
        0.0,
        0.0,
        0.0,
        0.0,
        0.0,
        1.0
      ],
      "name": "sk8_psy.fbx"
    },
    {
      "children": [
        3,
        6,
        9
      ],
      "name": "RootNode"
    },
    {
      "children": [
        4,
        5
      ],
      "matrix": [
        100.0,
        0.0,
        0.0,
        0.0,
        0.0,
        -1.629206793918314e-05,
        -99.99999999999868,
        0.0,
        0.0,
        99.99999999999868,
        -1.629206793918314e-05,
        0.0,
        0.0,
        0.0,
        0.0,
        1.0
      ],
      "name": "Plane.002"
    },
    {
      "mesh": 0,
      "name": "Plane.002_Material.001_0"
    },
    {
      "mesh": 1,
      "name": "Plane.002_Material.002_0"
    },
    {
      "children": [
        7,
        8
      ],
      "matrix": [
        100.0,
        0.0,
        0.0,
        0.0,
        0.0,
        -1.629206793918314e-05,
        -99.99999999999868,
        0.0,
        0.0,
        99.99999999999868,
        -1.629206793918314e-05,
        0.0,
        0.0,
        0.0,
        0.0,
        1.0
      ],
      "name": "Cylinder.003"
    },
    {
      "mesh": 2,
      "name": "Cylinder.003_Material.003_0"
    },
    {
      "mesh": 3,
      "name": "Cylinder.003_track_0"
    },
    {
      "children": [
        10,
        11
      ],
      "matrix": [
        100.0,
        0.0,
        0.0,
        0.0,
        0.0,
        -1.629206793918314e-05,
        -99.99999999999868,
        0.0,
        0.0,
        99.99999999999868,
        -1.629206793918314e-05,
        0.0,
        0.0,
        0.0,
        0.0,
        1.0
      ],
      "name": "Cylinder.001"
    },
    {
      "mesh": 4,
      "name": "Cylinder.001_Material.003_0"
    },
    {
      "mesh": 5,
      "name": "Cylinder.001_track_0"
    }
  ],
  "samplers": [
    {
      "magFilter": 9729,
      "minFilter": 9987,
      "wrapS": 10497,
      "wrapT": 10497
    }
  ],
  "scene": 0,
  "scenes": [
    {
      "name": "Sketchfab_Scene",
      "nodes": [
        0
      ]
    }
  ],
  "textures": [
    {
      "sampler": 0,
      "source": 0
    }
  ]
}
